M48
; DRILL file {KiCad 9.0.7-1.fc43} date 2026-03-12T17:46:21+0200
; FORMAT={-:-/ absolute / metric / decimal}
; #@! TF.CreationDate,2026-03-12T17:46:21+02:00
; #@! TF.GenerationSoftware,Kicad,Pcbnew,9.0.7-1.fc43
; #@! TF.FileFunction,Plated,1,2,PTH
FMAT,2
METRIC
; #@! TA.AperFunction,Plated,PTH,ViaDrill
T1C0.300
; #@! TA.AperFunction,Plated,PTH,ComponentDrill
T2C1.000
; #@! TA.AperFunction,Plated,PTH,ComponentDrill
T3C2.500
%
G90
G05
T1
X125.8Y-100.5
X127.285Y-108.389
X127.455Y-92.189
X130.506Y-113.995
X131.669Y-85.658
X142.874Y-81.15
X150.4Y-81.2
X161.5Y-112.0
X162.5Y-88.5
X165.0Y-94.5
X165.0Y-107.5
X167.4Y-101.6
T2
X140.98Y-83.8
X140.98Y-99.05
X141.34Y-104.349
X143.52Y-83.8
X143.52Y-99.05
X143.72Y-119.4
X143.88Y-104.349
X146.06Y-83.8
X146.06Y-99.05
X146.26Y-119.4
X146.42Y-104.349
X148.6Y-83.8
X148.6Y-99.05
X148.8Y-119.4
X148.96Y-104.349
X151.14Y-83.8
X151.14Y-99.05
X151.34Y-119.4
X151.5Y-104.349
X153.68Y-83.8
X153.68Y-99.05
X154.04Y-104.349
X156.22Y-83.8
X156.22Y-99.05
T3
X133.8Y-93.584
X137.589Y-117.089
X137.6Y-104.384
X157.909Y-104.389
X157.931Y-117.111
X161.0Y-91.8
M30
