%TF.GenerationSoftware,KiCad,Pcbnew,9.0.7-1.fc43*%
%TF.CreationDate,2026-03-12T17:45:23+02:00*%
%TF.ProjectId,inf turret,696e6620-7475-4727-9265-742e6b696361,rev?*%
%TF.SameCoordinates,Original*%
%TF.FileFunction,Paste,Top*%
%TF.FilePolarity,Positive*%
%FSLAX46Y46*%
G04 Gerber Fmt 4.6, Leading zero omitted, Abs format (unit mm)*
G04 Created by KiCad (PCBNEW 9.0.7-1.fc43) date 2026-03-12 17:45:23*
%MOMM*%
%LPD*%
G01*
G04 APERTURE LIST*
G04 Aperture macros list*
%AMRoundRect*
0 Rectangle with rounded corners*
0 $1 Rounding radius*
0 $2 $3 $4 $5 $6 $7 $8 $9 X,Y pos of 4 corners*
0 Add a 4 corners polygon primitive as box body*
4,1,4,$2,$3,$4,$5,$6,$7,$8,$9,$2,$3,0*
0 Add four circle primitives for the rounded corners*
1,1,$1+$1,$2,$3*
1,1,$1+$1,$4,$5*
1,1,$1+$1,$6,$7*
1,1,$1+$1,$8,$9*
0 Add four rect primitives between the rounded corners*
20,1,$1+$1,$2,$3,$4,$5,0*
20,1,$1+$1,$4,$5,$6,$7,0*
20,1,$1+$1,$6,$7,$8,$9,0*
20,1,$1+$1,$8,$9,$2,$3,0*%
%AMRotRect*
0 Rectangle, with rotation*
0 The origin of the aperture is its center*
0 $1 length*
0 $2 width*
0 $3 Rotation angle, in degrees counterclockwise*
0 Add horizontal line*
21,1,$1,$2,0,0,$3*%
G04 Aperture macros list end*
%ADD10RoundRect,0.250000X0.350000X0.450000X-0.350000X0.450000X-0.350000X-0.450000X0.350000X-0.450000X0*%
%ADD11RoundRect,0.250000X0.412500X0.650000X-0.412500X0.650000X-0.412500X-0.650000X0.412500X-0.650000X0*%
%ADD12RoundRect,0.250000X0.337500X0.475000X-0.337500X0.475000X-0.337500X-0.475000X0.337500X-0.475000X0*%
%ADD13RotRect,1.000000X0.600000X22.500000*%
%ADD14RotRect,1.000000X0.600000X315.000000*%
%ADD15RotRect,1.000000X0.600000X337.500000*%
%ADD16R,1.000000X0.600000*%
%ADD17RotRect,1.000000X0.600000X45.000000*%
%ADD18RoundRect,0.317500X0.317500X0.825500X-0.317500X0.825500X-0.317500X-0.825500X0.317500X-0.825500X0*%
G04 APERTURE END LIST*
D10*
%TO.C,R5*%
X163675000Y-100000000D03*
X161675000Y-100000000D03*
%TD*%
D11*
%TO.C,C2*%
X134962500Y-101400000D03*
X131837500Y-101400000D03*
%TD*%
D12*
%TO.C,C1*%
X134837500Y-98000000D03*
X132762500Y-98000000D03*
%TD*%
D13*
%TO.C,D2*%
X128002511Y-106298957D03*
X128500001Y-107500000D03*
X130347759Y-106734633D03*
X129850269Y-105533590D03*
%TD*%
D14*
%TO.C,D2*%
X133505026Y-85166548D03*
X132585787Y-86085787D03*
X134000000Y-87500000D03*
X134919239Y-86580761D03*
%TD*%
D15*
%TO.C,D2*%
X129149730Y-91033590D03*
X128652242Y-92234634D03*
X130500000Y-93000000D03*
X130997488Y-91798956D03*
%TD*%
D16*
%TO.C,D2*%
X127000000Y-99200000D03*
X127000001Y-100500000D03*
X129000000Y-100500000D03*
X128999999Y-99200000D03*
%TD*%
%TO.C,D2*%
X165999999Y-99200000D03*
X166000000Y-100500000D03*
X167999999Y-100500000D03*
X167999998Y-99200000D03*
%TD*%
D17*
%TO.C,D2*%
X131000000Y-111500000D03*
X131919239Y-112419238D03*
X133333452Y-111005026D03*
X132414213Y-110085788D03*
%TD*%
D14*
%TO.C,D2*%
X162752513Y-110333274D03*
X161833274Y-111252513D03*
X163247487Y-112666726D03*
X164166726Y-111747487D03*
%TD*%
D13*
%TO.C,D2*%
X164002510Y-92798957D03*
X164500000Y-94000000D03*
X166347758Y-93234633D03*
X165850268Y-92033590D03*
%TD*%
D18*
%TO.C,U1*%
X148205000Y-95825000D03*
X146300000Y-95825000D03*
%TD*%
D16*
%TO.C,D2*%
X143000000Y-80350000D03*
X143000001Y-81650000D03*
X145000000Y-81650000D03*
X144999999Y-80350000D03*
%TD*%
D15*
%TO.C,D2*%
X165149730Y-105533590D03*
X164652242Y-106734634D03*
X166500000Y-107500000D03*
X166997488Y-106298956D03*
%TD*%
D16*
%TO.C,D2*%
X150500000Y-80350000D03*
X150500001Y-81650000D03*
X152500000Y-81650000D03*
X152499999Y-80350000D03*
%TD*%
D17*
%TO.C,D2*%
X160500000Y-87500000D03*
X161419239Y-88419238D03*
X162833452Y-87005026D03*
X161914213Y-86085788D03*
%TD*%
M02*
